<svg xmlns:xlink="http://www.w3.org/1999/xlink" xmlns="http://www.w3.org/2000/svg" width="65" height="36" viewBox="0 0 65 36" fill="none">
<g clip-path="url(#clip0_2800_7296)">
<path d="M47.1883 35.3643C56.619 35.3643 64.2642 27.6421 64.2642 18.1162C64.2642 8.59039 56.619 0.868164 47.1883 0.868164C37.7575 0.868164 30.1123 8.59039 30.1123 18.1162C30.1123 27.6421 37.7575 35.3643 47.1883 35.3643Z" fill="#107C10"/>
<path d="M47.1884 16.4744C47.1884 16.4744 47.2112 16.4744 47.2188 16.4897C49.6712 18.3764 53.8775 23.0469 52.602 24.366C51.1062 25.6851 49.1853 26.4137 47.196 26.4137C45.2067 26.4137 43.2857 25.6851 41.79 24.366C40.5068 23.0469 44.7132 18.3764 47.1656 16.4897C47.1732 16.4897 47.1808 16.4744 47.196 16.4744H47.1884ZM51.4631 11.0369C50.2027 10.2853 48.8436 9.8252 47.1884 9.8252C45.5332 9.8252 44.1665 10.2853 42.9137 11.0369C42.9137 11.0369 42.8985 11.0446 42.8985 11.0523C42.8985 11.0523 42.8985 11.0676 42.8985 11.0753C42.8985 11.0753 42.9061 11.0906 42.9137 11.0906C42.9137 11.0906 42.9289 11.0906 42.9365 11.0906C44.5233 10.7455 46.9378 12.1336 47.1732 12.2717C47.1732 12.2717 47.1808 12.2717 47.1884 12.2717H47.2036C47.4313 12.1336 49.8458 10.7455 51.4403 11.0906C51.4403 11.0906 51.4555 11.0906 51.4631 11.0906C51.4631 11.0906 51.4782 11.0829 51.4782 11.0753C51.4782 11.0753 51.4782 11.0599 51.4782 11.0523C51.4782 11.0446 51.4707 11.0369 51.4631 11.0369ZM41.4407 12.2027C41.4407 12.2027 41.4179 12.218 41.4028 12.2333C39.9905 13.6521 39.1325 15.5388 38.9959 17.5481C38.8592 19.5574 39.4514 21.5438 40.6587 23.1466C40.6587 23.1466 40.6739 23.162 40.6815 23.162C40.689 23.162 40.6966 23.162 40.7042 23.162C40.7042 23.162 40.7118 23.1466 40.7194 23.139C40.7194 23.1313 40.7194 23.1236 40.7194 23.1159C40.0968 21.1603 43.2933 16.4207 44.9485 14.4344C44.9485 14.4344 44.9561 14.4191 44.9637 14.4114C44.9637 14.4114 44.9637 14.4037 44.9637 14.396C44.9637 14.396 44.9637 14.3884 44.9561 14.3807C42.4505 11.8652 41.6002 12.1336 41.4635 12.2027H41.4407ZM49.4434 14.3807C49.4434 14.3807 49.4358 14.3807 49.4358 14.396C49.4358 14.396 49.4358 14.4037 49.4358 14.4114C49.4358 14.4191 49.4358 14.4267 49.4434 14.4344C51.0986 16.4207 54.2951 21.1603 53.6725 23.1159C53.6725 23.1159 53.6725 23.1313 53.6725 23.139C53.6725 23.1466 53.6725 23.1543 53.6877 23.162C53.6953 23.162 53.7029 23.162 53.7105 23.162C53.7181 23.162 53.7257 23.1543 53.7333 23.1466C54.9405 21.5438 55.5327 19.5574 55.3885 17.5481C55.2518 15.5388 54.3938 13.6521 52.9816 12.2333C52.974 12.2257 52.9588 12.2103 52.9436 12.2027C52.807 12.1336 51.9566 11.8652 49.451 14.3807H49.4434Z" fill="white"/>
<path opacity="0.5" d="M30.1123 18.1158C30.1123 22.0348 31.4031 25.6393 33.5822 28.5383C35.784 25.6316 37.0976 22.0041 37.0976 18.0621C37.0976 14.1201 35.8068 10.5386 33.6277 7.63965C31.4258 10.5463 30.1123 14.1738 30.1123 18.1158Z" fill="black"/>
<path d="M17.7976 35.3106C27.2284 35.3106 34.8736 27.5884 34.8736 18.0625C34.8736 8.53668 27.2284 0.814453 17.7976 0.814453C8.36684 0.814453 0.72168 8.53668 0.72168 18.0625C0.72168 27.5884 8.36684 35.3106 17.7976 35.3106Z" fill="#5865F2"/>
<path d="M23.712 12.632C22.5958 12.1105 21.4114 11.75 20.1965 11.543C20.0295 11.8421 19.8776 12.1488 19.7486 12.4709C18.4578 12.2715 17.1367 12.2715 15.8459 12.4709C15.7093 12.1565 15.565 11.8497 15.398 11.543C14.1831 11.75 12.9987 12.1182 11.8826 12.6397C9.6579 15.9681 9.05048 19.2122 9.35419 22.4026C10.6601 23.3766 12.1179 24.1128 13.6668 24.5883C14.0161 24.1128 14.3274 23.6143 14.5931 23.0851C14.092 22.8934 13.5985 22.6633 13.1353 22.3872C13.2568 22.2952 13.3783 22.2032 13.4922 22.1188C16.2256 23.4149 19.3841 23.4149 22.1175 22.1188C22.2314 22.2185 22.3529 22.3105 22.4743 22.3872C22.0112 22.6633 21.5253 22.9011 21.0166 23.0928C21.2823 23.622 21.5936 24.1205 21.9429 24.596C23.4918 24.1205 24.9572 23.3842 26.2555 22.4102C26.6124 18.706 25.6481 15.4926 23.7195 12.6397L23.712 12.632ZM14.9652 20.4316C14.1224 20.4316 13.4315 19.6647 13.4315 18.7137C13.4315 17.7627 14.0996 16.9881 14.9652 16.9881C15.8307 16.9881 16.5141 17.7627 16.4989 18.7137C16.4837 19.6647 15.8232 20.4316 14.9652 20.4316ZM20.6293 20.4316C19.7865 20.4316 19.0956 19.6647 19.0956 18.7137C19.0956 17.7627 19.7638 16.9881 20.6293 16.9881C21.4949 16.9881 22.1782 17.7627 22.163 18.7137C22.1479 19.6647 21.4873 20.4316 20.6293 20.4316Z" fill="white"/>
</g>
<defs>
<clipPath id="clip0_2800_7296">
<rect width="64" height="35.3103" fill="white" transform="translate(0.5 0.339844)"/>
</clipPath>
</defs>
</svg>